<?xml version="1.0" encoding="UTF-8"?>
<svg xmlns="http://www.w3.org/2000/svg" xmlns:xlink="http://www.w3.org/1999/xlink" width="30px" height="23px" viewBox="0 0 30 23" version="1.1">
<g id="surface1">
<path style=" stroke:none;fill-rule:nonzero;fill:rgb(0%,0%,0%);fill-opacity:1;" d="M 21.53125 14.246094 C 21.070312 13.757812 20.515625 13.496094 19.925781 13.496094 C 19.34375 13.496094 18.78125 13.753906 18.304688 14.242188 L 16.800781 15.773438 C 16.679688 15.703125 16.554688 15.640625 16.4375 15.578125 C 16.265625 15.492188 16.105469 15.40625 15.964844 15.320312 C 14.5625 14.40625 13.285156 13.21875 12.058594 11.679688 C 11.464844 10.914062 11.066406 10.265625 10.777344 9.613281 C 11.164062 9.246094 11.527344 8.867188 11.878906 8.503906 C 12.011719 8.367188 12.144531 8.226562 12.277344 8.09375 C 13.273438 7.074219 13.273438 5.753906 12.277344 4.734375 L 10.980469 3.40625 C 10.832031 3.257812 10.679688 3.101562 10.539062 2.945312 C 10.253906 2.644531 9.953125 2.335938 9.644531 2.042969 C 9.183594 1.578125 8.632812 1.332031 8.054688 1.332031 C 7.476562 1.332031 6.914062 1.578125 6.441406 2.042969 C 6.4375 2.046875 6.4375 2.046875 6.429688 2.054688 L 4.816406 3.71875 C 4.207031 4.339844 3.863281 5.097656 3.785156 5.976562 C 3.671875 7.394531 4.082031 8.714844 4.394531 9.578125 C 5.164062 11.699219 6.3125 13.664062 8.027344 15.773438 C 10.105469 18.3125 12.609375 20.316406 15.46875 21.726562 C 16.558594 22.257812 18.019531 22.882812 19.648438 22.992188 C 19.746094 22.996094 19.851562 23 19.945312 23 C 21.042969 23 21.964844 22.597656 22.6875 21.796875 C 22.691406 21.785156 22.699219 21.78125 22.703125 21.773438 C 22.953125 21.464844 23.238281 21.1875 23.535156 20.894531 C 23.742188 20.695312 23.949219 20.484375 24.152344 20.265625 C 24.625 19.765625 24.871094 19.183594 24.871094 18.585938 C 24.871094 17.984375 24.617188 17.40625 24.140625 16.921875 Z M 23.230469 19.359375 C 23.226562 19.359375 23.226562 19.363281 23.230469 19.359375 C 23.046875 19.5625 22.855469 19.746094 22.652344 19.953125 C 22.34375 20.253906 22.03125 20.566406 21.734375 20.921875 C 21.257812 21.445312 20.691406 21.695312 19.949219 21.695312 C 19.878906 21.695312 19.804688 21.695312 19.730469 21.6875 C 18.320312 21.597656 17.011719 21.035156 16.027344 20.554688 C 13.339844 19.222656 10.980469 17.335938 9.019531 14.941406 C 7.398438 12.945312 6.316406 11.101562 5.601562 9.121094 C 5.160156 7.914062 4.996094 6.972656 5.066406 6.082031 C 5.117188 5.515625 5.328125 5.042969 5.722656 4.640625 L 7.34375 2.984375 C 7.574219 2.761719 7.824219 2.640625 8.066406 2.640625 C 8.363281 2.640625 8.605469 2.824219 8.757812 2.980469 C 8.761719 2.984375 8.765625 2.992188 8.773438 2.996094 C 9.0625 3.273438 9.335938 3.558594 9.625 3.863281 C 9.773438 4.019531 9.925781 4.175781 10.078125 4.335938 L 11.375 5.660156 C 11.878906 6.175781 11.878906 6.652344 11.375 7.164062 C 11.238281 7.304688 11.105469 7.445312 10.964844 7.582031 C 10.566406 8 10.1875 8.386719 9.773438 8.765625 C 9.765625 8.777344 9.753906 8.78125 9.75 8.792969 C 9.34375 9.207031 9.417969 9.617188 9.503906 9.894531 C 9.507812 9.90625 9.511719 9.921875 9.519531 9.9375 C 9.855469 10.773438 10.328125 11.558594 11.050781 12.496094 L 11.054688 12.5 C 12.367188 14.152344 13.75 15.4375 15.273438 16.421875 C 15.46875 16.546875 15.667969 16.652344 15.855469 16.746094 C 16.027344 16.835938 16.191406 16.917969 16.328125 17.003906 C 16.347656 17.015625 16.367188 17.027344 16.382812 17.039062 C 16.546875 17.121094 16.699219 17.160156 16.855469 17.160156 C 17.25 17.160156 17.496094 16.90625 17.578125 16.824219 L 19.199219 15.164062 C 19.363281 15 19.617188 14.800781 19.917969 14.800781 C 20.210938 14.800781 20.453125 14.992188 20.601562 15.15625 C 20.605469 15.160156 20.605469 15.160156 20.609375 15.164062 L 23.226562 17.839844 C 23.714844 18.335938 23.714844 18.84375 23.230469 19.359375 Z M 23.230469 19.359375 "/>
<path style=" stroke:none;fill-rule:nonzero;fill:rgb(0%,0%,0%);fill-opacity:1;" d="M 15.910156 5.472656 C 17.152344 5.683594 18.285156 6.285156 19.1875 7.207031 C 20.089844 8.132812 20.671875 9.285156 20.886719 10.558594 C 20.9375 10.878906 21.210938 11.101562 21.519531 11.101562 C 21.554688 11.101562 21.589844 11.097656 21.628906 11.09375 C 21.976562 11.035156 22.210938 10.695312 22.152344 10.335938 C 21.898438 8.796875 21.183594 7.394531 20.097656 6.28125 C 19.011719 5.171875 17.636719 4.441406 16.132812 4.179688 C 15.78125 4.121094 15.453125 4.359375 15.390625 4.714844 C 15.332031 5.066406 15.558594 5.414062 15.910156 5.472656 Z M 15.910156 5.472656 "/>
<path style=" stroke:none;fill-rule:nonzero;fill:rgb(0%,0%,0%);fill-opacity:1;" d="M 26.222656 10.144531 C 25.800781 7.613281 24.632812 5.304688 22.839844 3.472656 C 21.042969 1.636719 18.789062 0.441406 16.308594 0.0117188 C 15.960938 -0.0546875 15.632812 0.191406 15.574219 0.542969 C 15.515625 0.902344 15.75 1.238281 16.097656 1.300781 C 18.3125 1.683594 20.332031 2.757812 21.9375 4.394531 C 23.539062 6.035156 24.585938 8.097656 24.960938 10.359375 C 25.011719 10.679688 25.285156 10.902344 25.59375 10.902344 C 25.628906 10.902344 25.664062 10.898438 25.703125 10.894531 C 26.046875 10.839844 26.285156 10.5 26.222656 10.144531 Z M 26.222656 10.144531 "/>
</g>
</svg>
