<?xml version="1.0" encoding="UTF-8"?>
<svg xmlns="http://www.w3.org/2000/svg" xmlns:xlink="http://www.w3.org/1999/xlink" width="28px" height="20px" viewBox="0 0 27 20" version="1.1">
<g id="surface1">
<path style=" stroke:none;fill-rule:nonzero;fill:rgb(0%,0%,0%);fill-opacity:1;" d="M 2.625 0.0273438 C 2.570312 0.0390625 2.441406 0.0625 2.339844 0.078125 C 1.234375 0.285156 0.3125 1.230469 0.0859375 2.375 C -0.0078125 2.867188 -0.0078125 2.820312 0.0195312 5.121094 C 0.0390625 6.835938 0.0390625 8.289062 0.0195312 12.019531 C 0.0078125 14.617188 0 16.851562 0.0078125 16.984375 C 0.0625 18.144531 0.582031 19.046875 1.503906 19.589844 C 1.757812 19.738281 2.144531 19.878906 2.441406 19.925781 C 2.59375 19.949219 18.972656 19.996094 22.496094 19.984375 C 24.539062 19.976562 24.460938 19.984375 24.921875 19.847656 C 25.15625 19.78125 25.613281 19.550781 25.808594 19.394531 C 26.148438 19.132812 26.449219 18.765625 26.648438 18.371094 C 26.800781 18.066406 26.882812 17.8125 26.945312 17.425781 L 27 17.105469 L 26.996094 9.773438 L 26.988281 2.4375 L 26.917969 2.199219 C 26.835938 1.910156 26.621094 1.445312 26.46875 1.234375 C 26.328125 1.039062 26.039062 0.742188 25.851562 0.59375 C 25.660156 0.445312 25.203125 0.210938 24.972656 0.144531 C 24.871094 0.113281 24.660156 0.0703125 24.503906 0.046875 L 24.21875 0 L 13.476562 0.00390625 C 7.078125 0.00390625 2.6875 0.0117188 2.625 0.0273438 Z M 24.226562 1.578125 C 24.238281 1.59375 22.144531 3.777344 19.054688 6.980469 C 14.984375 11.203125 13.847656 12.371094 13.765625 12.414062 C 13.625 12.488281 13.480469 12.484375 13.339844 12.414062 C 13.257812 12.367188 12.035156 11.117188 8.039062 6.980469 C 4.792969 3.625 2.847656 1.59375 2.855469 1.578125 C 2.878906 1.542969 24.207031 1.542969 24.226562 1.578125 Z M 25.5625 9.855469 L 25.554688 17.332031 L 25.507812 17.5 C 25.398438 17.910156 25.191406 18.1875 24.886719 18.335938 C 24.800781 18.382812 24.703125 18.417969 24.675781 18.417969 C 24.636719 18.417969 23.859375 17.621094 20.992188 14.644531 C 18.996094 12.570312 17.359375 10.863281 17.359375 10.84375 C 17.359375 10.800781 25.53125 2.339844 25.546875 2.359375 C 25.558594 2.367188 25.5625 5.742188 25.5625 9.855469 Z M 5.664062 6.582031 L 9.691406 10.761719 L 6 14.589844 L 2.304688 18.421875 L 2.179688 18.363281 C 1.933594 18.246094 1.777344 18.058594 1.671875 17.757812 L 1.613281 17.597656 L 1.605469 10 C 1.605469 5.824219 1.609375 2.40625 1.617188 2.40625 C 1.628906 2.40625 3.449219 4.285156 5.664062 6.582031 Z M 12.011719 13.148438 C 12.878906 14.054688 13.3125 14.492188 13.367188 14.515625 C 13.464844 14.558594 13.640625 14.558594 13.746094 14.511719 C 13.804688 14.488281 14.179688 14.113281 15.070312 13.1875 C 15.757812 12.476562 16.328125 11.898438 16.335938 11.898438 C 16.367188 11.898438 22.675781 18.445312 22.675781 18.476562 C 22.675781 18.496094 20.824219 18.503906 13.46875 18.503906 C 6.121094 18.503906 4.261719 18.496094 4.261719 18.476562 C 4.261719 18.4375 10.65625 11.8125 10.695312 11.8125 C 10.714844 11.8125 11.304688 12.414062 12.011719 13.148438 Z M 12.011719 13.148438 "/>
</g>
</svg>
